PathFileType	4	(X/Y/Z)	OpenSim_Sub09_EMGStiffKnee_Accel.trc
DataRate	CameraRate	NumFrames	NumMarkers	Units	OrigDataRate	OrigDataStartFrame	OrigNumFrames
100	100	24	8	m	100	2845	7584
Frame#	Time	torso_imu_offset_imu	pelvis_imu_offset_imu	tibia_r_imu_offset_imu	femur_r_imu_offset_imu	tibia_l_imu_offset_imu	femur_l_imu_offset_imu	toes_r_imu_offset_imu	toes_l_imu_offset_imu
				X1	Y1	Z1	X2	Y2	Z2	X3	Y3	Z3	X4	Y4	Z4	X5	Y5	Z5	X6	Y6	Z6	X7	Y7	Z7	X8		Y8	Z8	

2845	28.44000000	8.48240411	1.94725849	6.86901319	8.88602062	-2.73369567	2.88160316	9.89347962	1.48617460	2.09012527	7.48976714	-2.83155390	2.83500446	10.08529153	-2.50889963	-0.15272401	9.95312866	-0.88463157	-1.47315631	10.36016633	-2.41786202	10.22565087	5.38773642	2.25722909	10.68700694
2846	28.45000000	8.50549290	1.87971938	6.88921444	8.87369618	-2.59910224	2.83296921	9.71326457	1.55657447	2.15214304	7.40247464	-3.09116946	2.89494659	10.10700795	-2.41010971	0.23032003	10.02639288	-0.60147936	-1.25667166	10.22695663	-2.19334002	9.06084978	5.63114385	2.07939603	10.78661271
2847	28.46000000	8.52607223	1.83149229	6.84269242	8.84251312	-2.52141988	2.79011036	9.46744776	1.78280569	2.05541200	7.41906143	-3.46972245	3.07598378	10.12252249	-2.29014720	0.72043059	10.07415699	-0.37423912	-1.49420974	10.06776138	-2.55094665	8.38942278	5.18913420	2.05476307	11.02170491
2848	28.47000000	8.51560304	1.85389859	6.83550263	8.82501740	-2.39417042	2.76996762	9.05912475	2.00431525	2.01943934	7.49655730	-4.04680017	3.36670243	10.29302677	-2.25241324	1.13520240	10.02443927	-0.18355022	-1.50161748	9.33100654	-2.75178674	7.42023161	4.79454532	2.04892972	11.24053629
2849	28.48000000	8.58328965	1.85638642	6.81996894	8.84101058	-2.34493644	2.64592565	8.41284089	2.08925234	2.09702600	7.75772730	-4.60668201	3.63257545	10.45463891	-1.84246665	1.26618411	10.02987929	0.09151708	-1.49429438	7.96212957	-2.78935854	5.96668490	5.27164244	1.90496752	11.01325079
2850	28.49000000	8.64587646	1.90133521	6.85186893	8.91734110	-2.16360417	2.54027695	7.71781992	1.91856279	2.33974896	8.08506801	-5.10635410	3.87919865	10.26430079	-1.37445412	1.33606172	10.03811701	0.35576174	-1.51328403	7.86116731	-2.73873954	4.99166522	5.49631082	1.70817243	11.03651686
2851	28.50000000	8.70502526	1.91781563	6.74657792	8.90453711	-2.13050531	2.45427443	7.10502171	1.40503912	2.66056940	8.35667793	-5.60795067	4.12305199	10.11220963	-1.34062785	1.54899866	10.08147926	0.50386655	-1.57355589	8.89262247	-2.11540844	4.54518025	5.50585412	1.65438752	10.91178210
2852	28.51000000	8.75133882	1.94548070	6.67821899	8.88979147	-2.09017825	2.43946779	6.44698046	0.71215881	2.87996260	8.55652822	-5.95882462	4.34801574	10.06033718	-1.64842268	1.45072898	10.03760109	0.66417602	-1.55287447	10.31217538	-1.38588448	4.08704534	5.18145499	1.88733694	11.14404495
2853	28.52000000	8.71325831	1.94308460	6.65336677	8.83392638	-2.18585274	2.39099905	6.14010392	-0.06845042	2.95602037	8.58589876	-6.18814573	4.65748233	10.23355338	-1.81957649	1.26453799	9.99212018	0.79628925	-1.42850251	11.40827652	-0.34674245	3.17950847	5.23052933	1.83452036	11.05140772
2854	28.53000000	8.71693981	1.96806933	6.51781052	8.76330777	-2.33526464	2.29587734	6.31935757	-1.05969675	2.89961479	8.53953739	-6.47021611	4.67292700	10.27208263	-1.54010774	1.05336833	9.93521442	0.90739788	-1.23231513	11.10972972	-0.14330193	1.43508739	5.59075394	1.71308721	10.92330285
2855	28.54000000	8.75625661	1.96748046	6.46019377	8.70363443	-2.41535063	2.18378443	6.78093438	-2.04422569	2.87409112	8.41679438	-6.72824933	4.47494708	10.18520454	-1.46884081	0.95704972	9.86879556	0.88581333	-1.28548981	10.51757055	0.09114347	-0.12277756	5.65277795	1.61485244	10.74189600
2856	28.55000000	8.82502374	2.00714197	6.33140643	8.56014850	-2.57581502	2.14183067	7.28114990	-2.78505104	2.48606788	8.13864667	-7.07029910	4.26860103	10.22339302	-1.78363345	0.59662147	9.81128201	0.95104220	-1.47495982	11.17939159	0.30296321	-1.46147169	5.33076960	1.92106324	11.08689548
2857	28.56000000	8.88969887	2.04148602	6.16697648	8.45619363	-2.55593151	1.89689160	7.43097312	-3.10098092	2.18135455	7.98334497	-7.47841347	4.39454183	10.43412405	-2.30320206	0.45717516	9.78119762	1.07845988	-1.66121351	12.58892458	0.40996706	-2.17329956	5.34573992	1.93909794	11.04382386
2858	28.57000000	8.94578517	2.17870147	5.94346472	8.35825600	-2.65444723	1.57720979	6.91924144	-2.71418483	2.25520703	8.01060516	-7.94279739	4.39474862	10.51163517	-2.35848679	0.39551428	9.71164792	1.23475099	-1.82582275	13.11489172	0.51733443	-2.50384618	5.60580165	1.94269792	10.81777657
2859	28.58000000	9.01230947	2.27298756	5.75036205	8.21100140	-2.44738100	1.26160959	5.92642131	-1.92113739	2.06350229	7.97480454	-8.35753438	3.90077699	10.37329483	-2.42214293	0.24879036	9.64801725	1.18537893	-1.86975954	11.47949082	0.58585322	-1.55502319	5.79054200	1.74257159	10.83836137
2860	28.59000000	9.16849007	2.35614757	5.61375416	8.32224179	-2.25447011	1.30890535	4.87693809	-0.81050465	1.74820313	7.63971885	-8.25725341	3.11342645	10.39750056	-2.69618240	0.15537577	9.54991818	1.07104618	-1.89113024	15.12220091	3.43917203	-7.40384699	5.70999778	1.89103660	10.86230378
2861	28.60000000	9.56529774	2.35107278	5.83599148	8.82877897	-1.83317342	2.92428399	5.44156466	-0.62014918	0.91614066	7.18213265	-7.12158249	2.74279374	10.62366563	-2.84806436	0.06514308	9.53617860	1.01938626	-1.89030175	-7.60564252	12.44816981	-14.30579180	5.55576968	1.91319913	11.09298627
2862	28.61000000	10.63557786	2.13263694	5.98178715	9.76884392	-1.23519378	4.76960540	8.50685889	-1.04888287	4.03669798	7.67428077	-5.58494921	3.17273845	10.91678177	-2.24354561	0.18915176	9.70466029	1.01614486	-1.91027548	-2.60790535	1.01515996	0.20849090	5.64860945	2.09258917	11.19527120
2863	28.62000000	11.73581484	1.79706729	6.49740981	10.93039139	-0.45996845	7.03264286	12.30993186	-3.82668579	5.94271691	10.21759104	-4.21147422	4.76391404	11.49284971	-1.23643726	1.05400276	9.95642600	1.01657580	-1.82117024	25.82673981	-9.47378124	28.78727325	5.77530983	2.12907676	11.51728378
2864	28.63000000	12.67969071	1.49459245	7.26614350	12.78660966	0.86331812	8.65620694	23.28759845	-5.17318206	12.82545282	15.26414334	-3.47023785	6.06641955	11.90384349	-0.47075024	1.76272656	10.26011511	0.81707842	-1.70506414	28.56337695	1.70216601	21.90157157	5.86536193	2.27280973	11.55328990
2865	28.64000000	12.87616371	1.39950350	7.80187155	14.16972753	2.50655609	8.71491570	31.00613292	-10.66315062	5.33538107	21.80059929	-2.15239845	7.96347495	11.92626673	0.13210686	2.40845146	10.63951665	0.15829718	-1.29998623	12.80471897	-1.12720959	4.58183515	5.51619489	2.74996428	11.72552913
2866	28.65000000	12.28150309	1.49400919	7.62068995	13.54126507	4.52811771	7.00690391	23.57488608	-5.22914563	-2.74390615	27.22847602	-0.95542633	7.34489895	11.79567387	0.18029238	3.18845820	11.30064211	-1.06560710	-0.92484799	17.45233494	-3.92605168	13.07127654	5.94185148	2.70650729	11.69118524
2867	28.66000000	11.87576628	1.21363384	7.22331366	11.35916817	3.88974056	6.00797777	10.98677108	1.32166740	-2.60774111	23.10014578	3.35807419	1.11394273	11.30535843	-0.61976030	3.12532947	11.88395159	-2.61502084	-0.78328359	9.44625984	-1.92644838	8.89710082	5.65490566	2.30727188	11.54132288
2868	28.67000000	12.29050879	0.57888964	6.65658937	10.02029512	0.77190319	5.27228347	5.57121550	4.52348998	-1.33667074	13.55489907	2.51395404	-3.94442564	10.53509332	-2.22827300	2.58198546	12.81067616	-3.98581576	-0.67757954	3.78004758	0.44898441	6.98409435	6.06121965	1.96800953	11.45719823
